<?xml version="1.0" standalone="no"?>
<!DOCTYPE svg PUBLIC "-//W3C//DTD SVG 20010904//EN"
 "http://www.w3.org/TR/2001/REC-SVG-20010904/DTD/svg10.dtd">
<svg version="1.0" xmlns="http://www.w3.org/2000/svg"
 width="1288.000000pt" height="1288.000000pt" viewBox="0 0 1288.000000 1288.000000"
 preserveAspectRatio="xMidYMid meet">
<metadata>
Created by potrace 1.14, written by Peter Selinger 2001-2017
</metadata>
<g transform="translate(0.000000,1288.000000) scale(0.100000,-0.100000)"
fill="#000000" stroke="none">
<path d="M5278 12875 c-1 -2 -39 -6 -83 -9 -44 -3 -96 -8 -115 -10 -19 -2 -62
-7 -96 -10 -33 -3 -68 -8 -76 -11 -8 -3 -32 -8 -54 -10 -75 -8 -99 -12 -123
-20 -13 -4 -38 -8 -55 -9 -18 -2 -36 -5 -42 -8 -5 -3 -36 -11 -69 -18 -33 -7
-64 -15 -70 -18 -5 -4 -21 -8 -35 -10 -13 -2 -27 -8 -31 -14 -3 -5 -9 -9 -13
-8 -19 3 -91 -17 -180 -53 -56 -22 -105 -40 -111 -41 -5 -1 -21 -8 -35 -16
-14 -8 -31 -13 -37 -12 -7 2 -13 -2 -13 -8 0 -5 -5 -10 -10 -10 -34 0 -359
-183 -435 -245 -14 -11 -39 -31 -57 -45 -88 -69 -191 -170 -266 -259 -26 -31
-49 -58 -52 -61 -22 -22 -80 -100 -80 -108 0 -6 -4 -12 -9 -14 -12 -4 -128
-183 -137 -211 -4 -12 -10 -24 -13 -27 -7 -5 -42 -77 -87 -177 -23 -51 -82
-219 -91 -258 -2 -11 -7 -31 -10 -45 -3 -14 -6 -31 -6 -37 0 -7 -3 -13 -7 -13
-3 0 -6 -8 -6 -17 -1 -22 -14 -118 -20 -147 -29 -136 -16 -513 23 -666 3 -14
7 -33 8 -42 2 -10 4 -20 5 -23 1 -3 3 -14 4 -24 0 -11 4 -23 9 -27 4 -4 7 -16
7 -27 0 -23 104 -336 125 -378 9 -16 13 -29 9 -29 -3 0 4 -16 16 -35 12 -19
18 -35 14 -35 -4 0 -3 -5 4 -12 7 -7 12 -19 12 -27 0 -8 6 -22 13 -30 7 -9 24
-41 37 -71 13 -30 29 -62 36 -70 6 -8 22 -35 36 -60 53 -101 230 -357 301
-436 6 -7 17 -19 22 -26 17 -22 99 -122 110 -134 5 -6 35 -40 65 -75 81 -93
352 -365 450 -450 47 -41 87 -76 90 -79 3 -3 30 -25 60 -50 30 -25 57 -47 60
-50 5 -5 107 -89 125 -103 6 -4 49 -39 97 -77 48 -39 90 -70 93 -70 5 0 78
-54 118 -86 9 -8 20 -14 23 -14 3 0 20 -11 38 -25 39 -32 39 -32 111 -80 52
-35 166 -115 230 -161 11 -8 44 -31 74 -52 30 -20 56 -43 59 -51 3 -8 0 -11
-7 -7 -6 4 -37 2 -68 -3 -32 -5 -74 -12 -93 -15 -57 -9 -129 -23 -225 -46 -49
-12 -97 -23 -105 -25 -8 -2 -27 -8 -42 -14 -16 -6 -28 -8 -28 -5 0 2 -8 0 -18
-5 -11 -6 -30 -12 -43 -15 -26 -5 -112 -32 -144 -45 -11 -5 -42 -17 -70 -27
-27 -9 -66 -24 -85 -32 -19 -9 -40 -16 -45 -18 -27 -5 -350 -162 -440 -213
-27 -15 -67 -38 -87 -49 -71 -40 -173 -106 -176 -114 -2 -4 -8 -8 -14 -8 -11
0 -131 -81 -136 -92 -2 -5 -9 -8 -14 -8 -6 0 -18 -7 -27 -15 -9 -9 -52 -42
-96 -74 -299 -220 -633 -551 -839 -831 -31 -41 -59 -79 -64 -85 -15 -19 -162
-245 -162 -250 0 -2 -15 -28 -33 -57 -18 -29 -39 -66 -47 -83 -8 -16 -17 -32
-21 -35 -3 -3 -31 -59 -63 -125 -32 -66 -62 -127 -67 -135 -5 -8 -12 -22 -15
-30 -3 -8 -9 -24 -14 -35 -8 -22 -18 -44 -51 -120 -12 -27 -22 -54 -23 -60 -1
-5 -5 -16 -9 -22 -5 -7 -10 -21 -12 -30 -2 -10 -9 -31 -16 -48 -7 -16 -13 -32
-13 -35 -1 -3 -6 -18 -13 -35 -9 -24 -48 -146 -60 -190 -21 -79 -74 -287 -78
-307 -3 -16 -8 -43 -11 -60 -4 -18 -8 -42 -9 -53 -2 -11 -4 -21 -5 -22 -2 -2
-4 -12 -5 -23 -1 -11 -3 -21 -4 -22 -1 -2 -4 -19 -6 -38 -11 -88 -13 -108 -20
-155 -3 -27 -8 -61 -10 -75 -13 -79 -19 -225 -19 -460 -1 -288 4 -370 34 -560
20 -126 22 -137 35 -200 4 -19 9 -44 10 -55 2 -11 4 -21 5 -22 3 -3 3 -5 14
-53 10 -44 74 -245 91 -285 7 -16 23 -55 35 -85 35 -87 60 -144 70 -160 4 -8
23 -44 41 -80 18 -36 55 -100 81 -143 26 -43 48 -83 48 -88 0 -5 4 -9 8 -9 5
0 15 -12 23 -27 8 -15 19 -35 26 -43 117 -149 163 -201 253 -290 58 -58 128
-123 154 -145 26 -22 55 -47 65 -55 9 -8 46 -36 83 -62 37 -27 74 -56 84 -65
10 -10 20 -18 23 -17 3 0 42 -23 86 -51 44 -28 100 -62 125 -76 25 -13 47 -26
50 -29 6 -6 195 -99 275 -135 33 -15 71 -33 85 -40 14 -7 27 -12 30 -12 3 1
24 -5 45 -15 44 -18 74 -28 78 -26 1 1 13 -5 27 -12 14 -8 30 -15 35 -16 6 -1
53 -16 105 -33 105 -35 231 -71 270 -76 14 -2 25 -4 25 -5 0 -1 7 -3 15 -5 51
-13 77 -18 93 -17 9 0 17 -2 17 -6 0 -4 12 -8 28 -8 15 -1 37 -4 48 -7 22 -6
53 -11 139 -23 28 -3 59 -8 70 -10 11 -3 49 -7 85 -10 36 -3 71 -7 78 -10 55
-17 659 -26 812 -11 166 16 203 22 219 31 5 4 13 2 16 -4 5 -7 11 -8 19 -1 6
5 31 12 56 15 25 2 45 5 45 6 0 1 7 3 15 5 26 5 84 16 105 19 11 2 20 4 20 5
0 1 11 4 25 6 32 6 64 13 68 15 1 2 10 3 20 5 9 1 24 5 32 8 8 4 26 9 40 11
14 3 26 5 28 7 1 1 5 2 10 3 4 1 13 5 20 9 6 5 12 6 12 3 0 -3 38 8 85 24 47
16 85 26 85 23 0 -3 6 -1 13 4 6 6 30 16 52 23 46 14 214 81 295 117 30 14 71
31 90 40 19 8 42 19 50 24 8 5 22 12 30 15 62 25 336 168 397 207 24 15 47 27
53 27 5 0 10 4 10 9 0 5 12 14 28 20 26 10 62 30 72 41 15 15 126 84 133 82 4
-1 7 2 7 7 0 5 19 20 43 34 23 14 56 37 72 51 17 14 33 26 36 26 4 0 22 13 40
30 19 16 37 30 41 30 4 0 13 6 20 12 7 7 47 40 88 73 104 83 120 97 143 123
12 12 24 22 28 22 4 0 23 15 42 33 20 17 53 48 75 67 210 189 440 415 622 610
58 61 124 132 147 156 22 24 39 44 37 44 -2 0 9 12 24 28 29 29 153 173 267
310 11 13 28 31 38 40 9 9 17 22 17 30 0 7 5 10 10 7 6 -3 10 1 10 9 0 9 4 16
8 16 4 0 15 12 24 27 9 16 27 39 40 53 36 39 85 102 207 265 62 83 119 158
127 168 8 9 14 21 14 26 0 5 3 11 8 13 7 3 23 25 94 129 23 35 47 68 51 74 9
11 123 187 185 285 23 36 46 72 52 80 32 47 130 212 130 219 0 4 9 16 20 26
11 10 20 22 20 26 0 4 38 71 85 149 47 78 85 145 85 150 0 5 6 15 13 22 6 7
23 33 36 58 14 25 36 63 50 85 14 22 26 42 26 45 1 6 45 88 62 115 7 11 16 29
21 40 5 11 23 43 40 72 17 28 28 54 25 57 -4 3 -2 6 4 6 6 0 16 15 24 32 7 18
16 35 19 38 4 3 18 28 31 55 58 115 93 181 105 195 7 8 13 18 13 23 0 7 61
132 81 167 24 42 130 272 130 282 0 6 7 19 16 29 8 9 16 26 17 38 1 11 4 21 8
21 4 0 9 10 13 23 7 27 2 16 37 92 40 89 46 143 24 202 -22 56 -26 63 -85 121
-131 129 -340 154 -462 54 -41 -34 -69 -68 -85 -104 -9 -21 -21 -38 -27 -38
-5 0 -6 -3 -3 -6 4 -4 -3 -20 -14 -35 -11 -16 -17 -29 -12 -29 4 0 3 -4 -2 -8
-6 -4 -32 -50 -58 -102 -99 -199 -227 -434 -239 -438 -4 -2 -8 -8 -8 -13 0
-13 -93 -173 -102 -177 -5 -2 -8 -8 -8 -12 0 -5 -50 -91 -112 -192 -61 -101
-120 -199 -131 -218 -11 -19 -27 -43 -35 -53 -8 -9 -11 -17 -6 -17 5 0 4 -4
-2 -8 -7 -4 -25 -28 -40 -54 -87 -143 -138 -223 -146 -226 -4 -2 -8 -8 -8 -13
0 -6 -8 -22 -19 -37 -10 -15 -74 -110 -141 -212 -68 -102 -131 -194 -141 -205
-9 -11 -19 -27 -21 -35 -2 -8 -11 -23 -20 -34 -10 -11 -30 -38 -45 -60 -46
-68 -235 -329 -265 -366 -16 -19 -32 -39 -36 -45 -4 -5 -21 -28 -37 -50 -17
-22 -32 -42 -35 -45 -3 -3 -41 -50 -85 -105 -43 -55 -84 -105 -90 -111 -5 -6
-22 -26 -37 -45 -14 -19 -35 -44 -45 -55 -16 -19 -45 -53 -116 -138 -10 -11
-39 -45 -65 -75 -26 -30 -55 -63 -65 -74 -42 -49 -135 -153 -164 -185 -18 -19
-33 -39 -33 -45 0 -6 -3 -8 -6 -4 -3 3 -18 -8 -33 -26 -25 -30 -193 -207 -218
-231 -7 -6 -66 -63 -131 -126 -146 -142 -275 -259 -376 -342 -12 -10 -28 -23
-36 -30 -229 -198 -544 -409 -860 -576 -36 -19 -78 -41 -95 -50 -16 -9 -36
-17 -44 -18 -8 -2 -18 -9 -22 -16 -5 -7 -9 -9 -9 -4 0 4 -11 1 -25 -8 -14 -9
-25 -14 -25 -10 0 4 -6 2 -13 -4 -14 -12 -222 -101 -247 -106 -8 -2 -22 -6
-30 -9 -37 -16 -160 -55 -160 -51 0 2 -13 -2 -29 -10 -16 -9 -31 -13 -34 -10
-3 3 -12 2 -19 -2 -7 -5 -15 -9 -18 -9 -6 -1 -68 -14 -97 -20 -13 -3 -33 -7
-45 -10 -12 -2 -40 -7 -63 -10 -22 -3 -51 -8 -65 -10 -110 -21 -531 -27 -680
-11 -41 5 -86 10 -100 11 -63 7 -147 18 -165 22 -11 2 -31 6 -45 9 -14 2 -45
9 -70 14 -25 6 -54 12 -65 15 -80 17 -193 54 -310 99 -53 20 -232 113 -245
126 -3 3 -18 14 -35 24 -34 22 -30 20 -110 84 -73 60 -225 217 -225 234 0 4
-6 13 -13 20 -82 82 -255 450 -283 598 -3 14 -9 39 -14 55 -4 17 -12 48 -16
70 -4 22 -8 47 -10 55 -22 119 -29 170 -41 315 -13 170 -5 668 12 696 4 5 0 9
-7 9 -8 0 -9 3 -3 8 10 7 17 47 19 112 1 19 4 37 7 40 4 3 9 30 12 60 4 30 11
80 17 110 6 30 13 66 15 80 3 14 7 36 10 50 3 14 8 36 11 50 3 14 10 43 16 65
5 22 12 47 13 55 7 31 46 166 52 180 3 8 7 20 8 26 4 17 46 136 60 169 7 17
16 41 20 55 3 14 12 39 20 55 7 17 26 59 41 95 50 119 96 215 106 221 5 3 10
10 9 15 -1 20 12 54 20 54 5 0 9 9 9 20 0 11 4 20 8 20 4 0 13 12 19 27 7 16
26 51 43 78 17 28 33 58 37 68 3 9 9 17 13 17 4 0 13 14 20 30 7 17 16 30 21
30 4 0 11 9 14 20 3 11 12 26 18 32 7 7 35 45 62 83 27 39 51 72 55 75 3 3 37
43 75 90 38 47 83 100 100 118 64 71 294 299 339 337 26 22 62 54 81 70 60 53
87 75 92 75 3 0 24 16 47 36 59 50 64 54 76 54 5 0 10 4 10 8 0 4 37 33 83 63
45 29 84 57 85 62 2 4 8 7 13 7 5 0 39 19 76 43 38 24 97 59 133 77 36 19 77
42 93 53 15 10 27 16 27 13 0 -3 26 8 58 23 31 16 68 32 82 36 14 4 30 11 35
15 8 6 69 29 95 35 3 1 12 5 20 8 81 34 330 97 450 113 66 9 289 10 345 2 58
-9 157 -44 250 -88 79 -37 110 -51 130 -56 68 -17 155 -20 265 -9 62 6 115 13
115 15 0 1 7 3 15 5 89 20 125 31 185 59 73 35 139 90 166 141 20 36 40 130
35 165 -6 45 -18 80 -27 80 -5 0 -9 8 -9 18 0 41 -86 111 -280 227 -63 38
-118 73 -121 78 -3 5 -9 7 -12 5 -4 -1 -16 5 -27 15 -11 9 -24 17 -29 17 -4 0
-20 9 -35 21 -14 11 -26 18 -26 15 0 -3 -16 5 -34 18 -19 13 -101 63 -181 112
-80 49 -164 101 -188 117 -23 15 -50 30 -59 33 -10 4 -18 9 -18 13 0 4 -15 15
-32 25 -51 26 -60 32 -283 180 -233 155 -528 363 -533 377 -2 5 -10 9 -18 9
-8 0 -17 7 -20 15 -4 8 -10 15 -16 15 -5 0 -31 18 -57 40 -26 22 -53 40 -59
40 -7 0 -12 4 -12 8 0 5 -18 21 -41 38 -22 16 -54 41 -70 57 -16 15 -34 27
-39 27 -6 0 -15 9 -22 20 -7 11 -17 20 -21 20 -7 0 -85 61 -133 105 -6 6 -42
37 -79 70 -143 125 -337 332 -448 478 -12 16 -27 34 -32 40 -6 7 -22 28 -35
47 -13 19 -27 37 -30 40 -14 13 -90 129 -90 138 0 6 -4 12 -8 14 -13 5 -77
115 -137 236 -54 108 -128 310 -140 382 -3 19 -8 43 -11 53 -30 99 -36 435
-10 557 3 14 8 36 11 50 13 70 19 91 42 165 39 125 142 331 178 357 6 4 6 8 2
8 -9 0 74 109 133 174 51 57 121 126 170 166 23 19 47 40 53 45 73 63 281 201
364 242 32 15 61 33 65 38 4 6 8 6 8 1 0 -5 6 -4 13 2 31 26 318 128 412 146
17 4 41 9 55 12 45 9 119 21 200 30 78 10 356 11 415 2 42 -6 153 -18 193 -21
6 0 12 -4 12 -9 0 -5 4 -6 10 -3 16 10 310 -67 355 -94 6 -3 19 -7 30 -8 11
-2 22 -8 23 -13 2 -6 9 -10 16 -10 7 0 40 -13 74 -30 34 -16 65 -30 68 -30 10
0 199 -122 202 -131 2 -5 10 -9 18 -9 8 0 14 -4 14 -8 0 -4 12 -15 28 -24 46
-29 165 -149 220 -223 28 -38 55 -74 60 -80 15 -20 132 -255 126 -255 -4 0 -1
-6 5 -13 6 -8 8 -17 4 -20 -3 -4 -1 -7 5 -7 7 0 11 -3 10 -7 -1 -5 7 -35 17
-68 18 -58 20 -66 29 -102 3 -10 5 -18 6 -18 3 0 10 -38 16 -85 3 -24 7 -47 9
-50 2 -4 7 -35 10 -71 4 -35 9 -77 11 -94 4 -34 4 -322 -1 -405 -3 -50 -10
-136 -19 -215 -6 -52 -19 -179 -22 -210 -1 -16 -3 -30 -4 -30 -2 0 -3 -8 -13
-76 -7 -44 -43 -188 -63 -250 -9 -25 -17 -52 -18 -60 -12 -62 -59 -212 -84
-269 -67 -155 -155 -333 -172 -350 -5 -5 -37 -62 -54 -97 -6 -13 -14 -23 -18
-23 -5 0 -8 -5 -8 -10 0 -14 -66 -115 -115 -176 -14 -18 -25 -37 -25 -42 0 -6
-6 -15 -12 -19 -7 -4 -22 -24 -32 -43 -11 -19 -24 -38 -30 -42 -5 -3 -11 -35
-12 -70 -2 -53 2 -74 27 -126 77 -161 247 -246 414 -207 74 17 111 40 185 114
65 64 210 250 210 269 0 5 9 17 20 27 11 10 20 24 20 31 0 7 6 19 13 26 7 7
16 20 20 28 4 8 18 33 32 55 14 22 30 51 37 65 7 14 15 27 18 30 8 7 63 114
168 325 107 213 142 291 142 310 0 7 4 16 9 19 5 3 11 16 15 29 3 13 13 41 22
63 10 21 18 44 20 49 1 6 20 66 42 135 72 223 88 291 127 525 7 40 16 129 20
185 2 25 4 45 6 45 1 0 2 102 3 228 1 125 -1 227 -4 227 -3 0 -6 21 -7 48 -2
66 -17 191 -28 232 -2 8 -7 31 -10 50 -3 19 -11 53 -17 75 -6 22 -12 46 -14
53 -7 36 -38 130 -50 154 -8 14 -14 31 -14 38 0 13 -20 60 -51 123 -10 22 -19
45 -19 53 0 8 -3 14 -8 14 -4 0 -16 19 -26 43 -15 35 -57 107 -129 221 -13 22
-27 41 -42 59 -6 7 -22 28 -35 47 -13 19 -41 53 -62 75 -21 22 -38 43 -38 46
0 14 -159 166 -260 248 -58 47 -157 121 -221 163 -113 76 -429 247 -429 233 0
-4 -7 -1 -16 6 -9 7 -25 14 -37 16 -11 2 -25 7 -31 12 -12 10 -279 102 -311
107 -11 2 -45 11 -75 20 -30 9 -65 17 -77 18 -13 0 -23 5 -23 10 0 5 -3 7 -6
4 -3 -3 -22 -1 -42 4 -20 6 -46 12 -57 13 -11 2 -63 11 -115 20 -52 9 -106 18
-120 20 -30 3 -205 23 -275 31 -56 6 -671 15 -677 9z"/>
</g>
</svg>
